<svg width="90" height="21" viewBox="0 0 90 21" fill="none" xmlns="http://www.w3.org/2000/svg">
<path d="M18.4356 0.359954V20.691H13.1153V0.359954H18.4356ZM5.32035 0.359954V20.691H0V0.359954H5.32035ZM15.9611 8.39997V12.497H2.59831V8.39997H15.9611Z" fill="black"/>
<path d="M72.0178 0.359954V20.691H66.6974V0.359954H72.0178ZM58.9025 0.359954V20.691H53.5821V0.359954H58.9025ZM69.5432 8.39997V12.497H56.1804V8.39997H69.5432Z" fill="black"/>
<path d="M43.8456 0.0616503C45.7359 -0.0995087 47.4256 0.0552944 48.9149 0.526059C50.4229 0.974612 51.7595 1.71604 52.9247 2.75033L50.6595 6.37528C49.6969 5.52983 48.6826 4.92583 47.6165 4.56326C46.5693 4.17848 45.3985 4.04126 44.1041 4.15162C43.3439 4.21644 42.7345 4.35083 42.276 4.55482C41.8175 4.7588 41.4978 5.01278 41.317 5.31676C41.1362 5.62074 41.0616 5.95688 41.0932 6.32519C41.1302 6.75489 41.357 7.10655 41.7738 7.3802C42.2094 7.63162 42.8879 7.82111 43.8096 7.94865L47.2965 8.4243C49.371 8.72149 50.9196 9.27995 51.9421 10.0997C52.9646 10.9194 53.5401 12.0761 53.6685 13.5698C53.7916 15.0021 53.5265 16.2511 52.873 17.3168C52.2178 18.362 51.2649 19.1956 50.0145 19.8175C48.7623 20.4189 47.304 20.7906 45.6398 20.9325C44.2837 21.0481 42.977 21.0152 41.7196 20.8339C40.4604 20.632 39.314 20.2969 38.2802 19.8286C37.2465 19.3602 36.3599 18.7968 35.6203 18.1385L37.8749 14.3908C38.4395 14.9403 39.1119 15.4189 39.8921 15.8265C40.691 16.2118 41.5436 16.4998 42.45 16.6905C43.3769 16.8794 44.3026 16.9345 45.2272 16.8556C45.9463 16.7943 46.536 16.6719 46.9963 16.4884C47.4771 16.3031 47.8182 16.0576 48.0196 15.7519C48.2209 15.4462 48.3049 15.0989 48.2715 14.7101C48.2346 14.2804 48.0497 13.9355 47.7169 13.6753C47.3823 13.3947 46.7747 13.1888 45.8942 13.0578L42.063 12.5497C40.8895 12.3818 39.8323 12.1215 38.8913 11.7689C37.9691 11.394 37.2195 10.8602 36.6425 10.1674C36.0638 9.45411 35.7261 8.53477 35.6293 7.40938C35.5203 6.14076 35.7728 4.98559 36.3869 3.94388C36.9993 2.8817 37.9384 2.00809 39.2041 1.32306C40.4698 0.638024 42.017 0.217554 43.8456 0.0616503Z" fill="black"/>
<path d="M37.6033 20.691H32.1283L30.7054 16.1011H23.7147L22.2609 20.691H16.9096L24.0859 0.359954H30.4579L37.6033 20.691ZM24.7045 12.497H29.7155L27.21 4.27215L24.7045 12.497Z" fill="black"/>
<path d="M87.2161 0.359954L83.9063 20.691H80.3491L83.6279 0.359954H87.2161ZM88.6699 12.651V15.7931H70.3271V12.651H88.6699ZM79.6377 0.359954L76.3589 20.691H72.7707L76.0495 0.359954H79.6377ZM90 5.2579V8.39997H71.6572V5.2579H90Z" fill="black"/>
</svg>
